<svg width="34" height="56" viewBox="0 0 34 56" fill="none" xmlns="http://www.w3.org/2000/svg">
<path d="M24.6562 35.5227V33.4331L26.3279 34.2251C25.7552 34.5916 25.1865 35.0211 24.6562 35.5226V35.5227Z" fill="#EB5D5D"/>
<path d="M7.52344 34.2254L9.19508 33.4331V35.5227C8.66451 35.0219 8.09517 34.5922 7.52344 34.2254Z" fill="#EB5D5D"/>
<path d="M33.8495 26.4745V24.4574H33.8081C33.8081 3.59997 27.9097 -3.62994 24.2485 1.67224C22.0755 4.81954 19.9027 12.2566 18.4944 17.7825C17.9675 17.7104 17.4304 17.6711 16.8845 17.6711C16.3513 17.6711 15.8269 17.708 15.3135 17.7773C13.9054 12.2515 11.7338 4.81837 9.56082 1.67231C5.89931 -3.62987 0.0012428 3.59997 0.0012428 24.4574V26.4746C0.0012428 26.7198 0.00124243 26.9623 1.13036e-05 27.2039C1.13036e-05 28.0786 -0.00115183 28.934 0.0201193 29.776C0.0786664 32.2772 0.317917 34.6458 1.25289 36.9992C1.55595 37.7628 1.93261 38.5249 2.40071 39.2896C3.08796 40.4157 3.9743 41.5481 5.1146 42.6995C5.69904 43.2899 6.21092 43.9106 6.66787 44.5488C7.71071 45.9995 8.47175 47.5391 9.17014 49.0026C10.3141 51.4006 11.2883 53.5945 13.0455 54.8637V54.8647C14.0344 55.5776 15.2712 56 16.9258 56C18.5784 56 19.8137 55.5803 20.8027 54.8673C22.5613 53.5999 23.5364 51.4054 24.6806 49.0066V49.0053C25.379 47.5418 26.1413 46.001 27.1827 44.55C27.6408 43.9118 28.1529 43.2899 28.7374 42.6995C29.8766 41.5494 30.7626 40.4168 31.4512 39.2896C31.9191 38.5249 32.296 37.7627 32.5991 36.9991C33.5326 34.6457 33.7719 32.2771 33.8307 29.7759C33.8522 28.9354 33.8507 28.0797 33.8507 27.2038C33.8496 26.9623 33.8495 26.7197 33.8495 26.4745Z" fill="#FEFEFE"/>
<path fill-rule="evenodd" clip-rule="evenodd" d="M2.40071 39.2896C1.93261 38.5249 1.55595 37.7628 1.25289 36.9992C0.317916 34.6458 0.0786664 32.2772 0.0201193 29.776C-0.000102239 28.9756 -4.88598e-05 28.163 5.64276e-06 27.3332L1.13036e-05 27.2039C0.00124243 26.9623 0.0012428 26.7198 0.0012428 26.4746V24.4574C0.0012428 3.59997 5.89931 -3.62987 9.56082 1.67231C11.7338 4.81837 13.9054 12.2515 15.3135 17.7773C15.8269 17.708 16.3513 17.6711 16.8845 17.6711C17.4304 17.6711 17.9674 17.7104 18.4944 17.7825C19.9027 12.2566 22.0755 4.81954 24.2485 1.67224C27.9097 -3.62994 33.8081 3.59997 33.8081 24.4574H33.8495V26.4745C33.8495 26.7197 33.8496 26.9623 33.8507 27.2038C33.8507 27.2575 33.8507 27.3111 33.8507 27.3646C33.8508 28.1845 33.8509 28.9869 33.8307 29.7759C33.7719 32.2771 33.5326 34.6457 32.5991 36.9991C32.296 37.7627 31.9191 38.5249 31.4512 39.2896C30.7626 40.4168 29.8766 41.5494 28.7374 42.6995C28.1529 43.2899 27.6408 43.9118 27.1827 44.55C26.1413 46.001 25.379 47.5417 24.6806 49.0053V49.0066C24.617 49.1398 24.554 49.2723 24.4914 49.4042C23.4257 51.6463 22.4637 53.6703 20.8027 54.8673C19.8137 55.5803 18.5784 56 16.9258 56C15.2712 56 14.0344 55.5776 13.0455 54.8647V54.8637C11.3871 53.6658 10.4261 51.6443 9.36162 49.405C9.29822 49.2716 9.23445 49.1374 9.17014 49.0026C8.47175 47.5391 7.71071 45.9995 6.66787 44.5488C6.21092 43.9106 5.69904 43.2899 5.1146 42.6995C3.9743 41.5481 3.08796 40.4157 2.40071 39.2896ZM7.68656 43.818C7.19558 43.1323 6.64164 42.46 6.00561 41.8175C4.92656 40.7279 4.10234 39.6712 3.47088 38.6365L3.47005 38.6351C3.03968 37.932 2.69503 37.2342 2.41819 36.5367C1.56438 34.3876 1.33076 32.1927 1.27351 29.7466L1.27345 29.7443C1.25364 28.9603 1.25369 28.1623 1.25374 27.3281L1.25374 27.2071C1.25497 26.9633 1.25497 26.7191 1.25497 26.476V24.4574C1.25497 14.0983 2.72696 7.31566 4.52257 3.82902C5.4421 2.04352 6.2965 1.40698 6.81696 1.28119C7.16629 1.19677 7.7594 1.27004 8.52917 2.38473C9.50632 3.79944 10.5468 6.29454 11.5358 9.23241C12.5123 12.1328 13.3984 15.3389 14.0986 18.0869L14.3745 19.1693L15.4814 19.0198C15.9408 18.9577 16.4092 18.9248 16.8845 18.9248C17.3701 18.9248 17.8503 18.9598 18.3244 19.0247L19.4329 19.1764L19.7093 18.0921C20.4096 15.3441 21.2961 12.137 22.2729 9.23538C23.2623 6.29634 24.303 3.79996 25.2802 2.38457C26.0499 1.26995 26.643 1.19671 26.9922 1.28113C27.5127 1.40692 28.3671 2.04348 29.2867 3.82899C31.0823 7.31563 32.5544 14.0983 32.5544 24.4574V25.7111H32.5958V26.4745C32.5958 26.7184 32.5958 26.9627 32.597 27.2065C32.597 27.258 32.597 27.3094 32.597 27.3605C32.5971 28.1846 32.5972 28.9716 32.5774 29.7438L32.5773 29.7464C32.5198 32.1924 32.2863 34.3872 31.4339 36.5365C31.157 37.2339 30.8121 37.9319 30.3818 38.6353L30.3814 38.636C29.7482 39.6724 28.9243 40.7293 27.8467 41.8171L27.8463 41.8174C27.2096 42.4607 26.6556 43.1344 26.1642 43.8189C25.0518 45.3687 24.2488 46.999 23.5491 48.4654L23.4269 48.7215V48.7233C23.4045 48.7702 23.3823 48.817 23.3601 48.8635C22.8538 49.9284 22.4033 50.8758 21.8982 51.7142C21.3382 52.6437 20.7593 53.3532 20.0697 53.8502C19.3185 54.3918 18.3468 54.7463 16.9258 54.7463C15.5467 54.7463 14.5895 54.4109 13.8468 53.8959L13.7795 53.8473C13.0902 53.3494 12.5116 52.6394 11.952 51.7098C11.4479 50.8726 10.9983 49.9272 10.493 48.8647C10.4302 48.7326 10.3665 48.5986 10.3017 48.4628C9.6023 46.9971 8.80044 45.3677 7.68656 43.818Z" fill="#7099F6"/>
<path d="M12.1203 38.0299C12.0573 34.2832 9.42664 32.4714 7.6016 31.6633C6.72212 30.2476 5.99615 27.9326 7.81476 28.5081C10.1434 29.245 12.0914 32.1456 12.1203 38.0299Z" fill="#7099F6"/>
<path d="M21.3094 38.0299C21.3724 34.2832 24.003 32.4714 25.8281 31.6633C26.7076 30.2476 27.4335 27.9326 25.6149 28.5081C23.2863 29.245 21.3382 32.1456 21.3094 38.0299Z" fill="#7099F6"/>
<path d="M20.0577 50.5669C19.4089 51.8212 18.2478 52.6564 16.9233 52.6564C15.5992 52.6564 14.4379 51.8213 13.7891 50.5669H20.0577Z" fill="#7099F6"/>
<path d="M12.5416 17.9256C8.38539 18.5968 5.02532 20.1352 2.92969 21.3135C2.93839 19.8478 3.09375 5.26788 6.18675 3.90434C7.96023 3.12216 8.74523 5.24159 12.5416 17.9256Z" fill="#7099F6"/>
<path d="M20.8984 17.9256C25.2355 18.5968 28.7413 20.1352 30.9283 21.3135C30.9192 19.8478 30.7568 5.26788 27.5296 3.90434C25.679 3.12216 24.8599 5.24159 20.8984 17.9256Z" fill="#7099F6"/>
<path d="M11.9472 26.9687C9.9135 23.2907 5.01562 21.7314 5.01562 21.7314L9.9545 28.3395C10.8672 29.5605 12.6875 28.3077 11.9471 26.9687H11.9472Z" fill="#7099F6"/>
<path d="M21.4956 26.9687C23.6489 23.2907 28.8349 21.7314 28.8349 21.7314L23.6052 28.3395C22.6391 29.5605 20.7116 28.3077 21.4957 26.9687H21.4956Z" fill="#7099F6"/>
<path d="M14.6328 24.0296C14.6328 23.4527 15.0072 22.9849 15.4686 22.9849C15.9301 22.9849 16.3045 23.4527 16.3045 24.0296C16.3045 24.6069 15.9301 25.0744 15.4686 25.0744C15.0072 25.0744 14.6328 24.6069 14.6328 24.0296Z" fill="#7099F6"/>
<path d="M15.8828 26.1196C15.8828 25.5424 16.3503 25.0747 16.9276 25.0747C17.5046 25.0747 17.9724 25.5424 17.9724 26.1196C17.9724 26.6965 17.5046 27.1643 16.9276 27.1643C16.3504 27.1643 15.8828 26.6965 15.8828 26.1196Z" fill="#7099F6"/>
<path d="M17.1328 24.0296C17.1328 23.4527 17.6006 22.9849 18.1775 22.9849C18.7544 22.9849 19.2224 23.4527 19.2224 24.0296C19.2224 24.6069 18.7544 25.0744 18.1775 25.0744C17.6006 25.0744 17.1328 24.6069 17.1328 24.0296Z" fill="#7099F6"/>
<path d="M20.8934 54.8309L20.891 54.8347C19.879 55.5682 18.6149 56 16.9239 56C15.2307 56 13.9651 55.5655 12.9531 54.832V54.8309C15.2793 56.2692 16.9239 54.5164 16.9239 52.6567C16.9239 54.5164 18.5676 56.2692 20.8934 54.8309Z" fill="#7099F6"/>
<path fill-rule="evenodd" clip-rule="evenodd" d="M12.5087 39.9341C12.2685 38.279 11.7089 36.2612 10.4754 34.5777C9.29958 32.9728 7.37472 31.9796 5.60909 31.3892C5.0493 31.202 4.5224 31.0609 4.06601 30.9558C4.12226 31.2901 4.19505 31.6652 4.28905 32.0695C4.66254 33.676 5.35572 35.676 6.62049 37.4022C7.82406 39.0448 9.65417 40.097 11.2746 40.7425C11.7713 40.9404 12.2371 41.0956 12.6426 41.2154C12.6183 40.8371 12.5769 40.4039 12.5087 39.9341ZM13.9147 41.531C13.9469 42.3169 13.9113 42.804 13.9113 42.804C13.9113 42.804 13.4255 42.73 12.6692 42.5257C10.8804 42.0425 7.57793 40.8302 5.60916 38.1432C3.69426 35.5297 3.00404 32.418 2.75896 30.7106C2.64554 29.9204 2.62746 29.431 2.62746 29.431C2.62746 29.431 3.12347 29.4787 3.89725 29.6364C5.82772 30.0297 9.48713 31.1075 11.4868 33.8367C13.4259 36.4833 13.8422 39.7631 13.9147 41.531Z" fill="#7099F6"/>
<path fill-rule="evenodd" clip-rule="evenodd" d="M21.2335 39.9341C21.4737 38.279 22.0332 36.2612 23.2667 34.5777C24.4426 32.9728 26.3675 31.9796 28.1331 31.3892C28.6929 31.202 29.2198 31.0609 29.6762 30.9558C29.6199 31.2901 29.5471 31.6652 29.4531 32.0695C29.0796 33.676 28.3865 35.676 27.1217 37.4022C25.9181 39.0448 24.088 40.097 22.4676 40.7425C21.9709 40.9404 21.505 41.0956 21.0996 41.2154C21.1239 40.8371 21.1653 40.4039 21.2335 39.9341ZM19.8275 41.531C19.7953 42.3169 19.8309 42.804 19.8309 42.804C19.8309 42.804 20.3167 42.73 21.073 42.5257C22.8618 42.0425 26.1643 40.8302 28.133 38.1432C30.0479 35.5297 30.7382 32.418 30.9832 30.7106C31.0966 29.9204 31.1147 29.431 31.1147 29.431C31.1147 29.431 30.6187 29.4787 29.8449 29.6364C27.9145 30.0297 24.2551 31.1075 22.2554 33.8367C20.3163 36.4833 19.9 39.7631 19.8275 41.531Z" fill="#7099F6"/>
</svg>
